<svg id="Layer_1" data-name="Layer 1" xmlns="http://www.w3.org/2000/svg" xmlns:xlink="http://www.w3.org/1999/xlink" viewBox="0 0 485.91 166.67"><defs><style>.cls-1,.cls-10,.cls-4,.cls-7,.cls-8{fill:none;}.cls-2{fill:#44c68b;}.cls-3{fill:url(#linear-gradient);}.cls-4{stroke:#39cefb;}.cls-10,.cls-4{stroke-linecap:round;}.cls-10,.cls-4,.cls-7,.cls-8{stroke-miterlimit:10;}.cls-10,.cls-4,.cls-7{stroke-width:2px;}.cls-5{clip-path:url(#clip-path);}.cls-6{fill:url(#linear-gradient-2);}.cls-7{stroke:url(#linear-gradient-3);}.cls-8{stroke:#17dd87;}.cls-9{fill:url(#radial-gradient);}.cls-10{stroke:url(#linear-gradient-4);}.cls-11{fill:url(#linear-gradient-5);}.cls-12{fill:#00b2f4;}</style><linearGradient id="linear-gradient" x1="38.6" y1="150.47" x2="62.02" y2="227.69" gradientTransform="matrix(1, 0, 0, -1, -9.22, 282.71)" gradientUnits="userSpaceOnUse"><stop offset="0" stop-color="#1784eb"/><stop offset="1" stop-color="#2dd3fc"/></linearGradient><clipPath id="clip-path" transform="translate(-9.22 -7.29)"><polygon class="cls-1" points="110.34 53.73 100.34 44.9 104.36 37.3 115.82 46.12 110.34 53.73"/></clipPath><linearGradient id="linear-gradient-2" x1="83.23" y1="168.75" x2="107.21" y2="247.81" xlink:href="#linear-gradient"/><linearGradient id="linear-gradient-3" x1="56.86" y1="142.6" x2="76.87" y2="256.17" gradientTransform="matrix(1, 0, 0, -1, 0, 290)" xlink:href="#linear-gradient"/><radialGradient id="radial-gradient" cx="83.28" cy="105.77" r="49.09" gradientTransform="matrix(1, 0.03, 0.03, -1, -19.77, 190.9)" gradientUnits="userSpaceOnUse"><stop offset="0.2" stop-color="#29f2a1"/><stop offset="1" stop-color="#00b2f4" stop-opacity="0.5"/></radialGradient><linearGradient id="linear-gradient-4" x1="38.71" y1="117.36" x2="70.53" y2="222.26" gradientTransform="matrix(1, 0, 0, -1, 0, 290)" gradientUnits="userSpaceOnUse"><stop offset="0.28" stop-color="#1784eb"/><stop offset="1" stop-color="#2dd3fc"/></linearGradient><linearGradient id="linear-gradient-5" x1="16.27" y1="125.8" x2="58.63" y2="265.42" xlink:href="#linear-gradient"/></defs><path class="cls-2" d="M211.14,108v30.66h-3.33v-6a13.83,13.83,0,0,1-12.09,6.71c-8.77,0-15.25-7.11-15.25-16.22S187,107.2,195.72,107.2a13.9,13.9,0,0,1,12.09,6.65V108Zm-3,15.19c0-7-5-12.78-12.21-12.78s-12,5.73-12,12.89,4.81,13,12,13S208.1,130.3,208.1,123.14Z" transform="translate(-9.22 -7.29)"/><path class="cls-2" d="M249.2,108v28c0,9.69-6.14,15.7-15.88,15.7a22,22,0,0,1-13.19-4.35l1.78-2.75a18.92,18.92,0,0,0,11.47,3.95c7.68,0,12.38-4.76,12.38-12.21v-3.95a14,14,0,0,1-12,6.42c-8.77,0-15.3-6.94-15.3-15.76s6.64-15.77,15.36-15.77a14,14,0,0,1,12,6.25V108ZM246,122.85a12.1,12.1,0,0,0-12.21-12.49c-7,0-12,5.44-12,12.61s5,12.61,12,12.61S246,130,246,122.85Z" transform="translate(-9.22 -7.29)"/><path class="cls-2" d="M258.48,108h3.27v4.93a9,9,0,0,1,8.88-5.73,15.54,15.54,0,0,1,3.79.51l-.4,3.27a10.94,10.94,0,0,0-3.27-.52c-5.79,0-8.83,4.65-8.83,10.72v17.48h-3.44Z" transform="translate(-9.22 -7.29)"/><path class="cls-2" d="M275.45,123.25a15.94,15.94,0,1,1,15.93,16.11A15.68,15.68,0,0,1,275.45,123.25Zm28.43,0c0-7.16-5.27-12.89-12.5-12.89s-12.49,5.73-12.49,12.89,5.33,13,12.49,13S303.88,130.47,303.88,123.25Z" transform="translate(-9.22 -7.29)"/><circle class="cls-3" cx="23.36" cy="152.06" r="7.32"/><path class="cls-4" d="M66.3,27.7C76.44,13.57,86.76,6.17,94.82,8.82c9.08,2.93,13.24,17.82,11.48,40.87" transform="translate(-9.22 -7.29)"/><g class="cls-5"><circle class="cls-6" cx="95.89" cy="41.81" r="5.04"/></g><path class="cls-7" d="M66.87,147.27a56.65,56.65,0,1,1,56.65-56.65h0A56.73,56.73,0,0,1,66.87,147.27Z" transform="translate(-9.22 -7.29)"/><line class="cls-8" x1="141.4" y1="29.04" x2="141.4" y2="130.59"/><path class="cls-9" d="M41,48.41a.69.69,0,1,1-.72-1.18A50.74,50.74,0,0,1,68,39.86a.71.71,0,0,1,.61.78.68.68,0,0,1-.61.6A49.09,49.09,0,0,0,41,48.41ZM22.32,68.64a.68.68,0,0,1-.92.32.69.69,0,0,1-.31-.92h0a50.76,50.76,0,0,1,10.76-14.5.69.69,0,1,1,1,1A49.53,49.53,0,0,0,22.32,68.64ZM17.23,88.27a.68.68,0,0,1-.69.68.67.67,0,0,1-.68-.68V86.59a.68.68,0,0,1,.77-.61.7.7,0,0,1,.61.61v1.68ZM32.88,126.7a.69.69,0,0,1-1,1,50.62,50.62,0,0,1-16-34.46.7.7,0,0,1,1.38-.07A49.17,49.17,0,0,0,32.91,126.7ZM88.24,46.22A.68.68,0,0,1,88.83,45,50.74,50.74,0,0,1,117,84.85a.69.69,0,0,1-.61.76.69.69,0,0,1-.76-.61h0A49.43,49.43,0,0,0,88.22,46.22Zm-46.79,6.1a.68.68,0,0,1-1-.2.69.69,0,0,1,.19-.95,47.13,47.13,0,0,1,19.08-7.24.7.7,0,0,1,.78.59.69.69,0,0,1-.58.77h0A45.61,45.61,0,0,0,41.45,52.32ZM28.63,65a.68.68,0,0,1-1,.13.7.7,0,0,1-.17-.9,46.91,46.91,0,0,1,6.21-7.42.69.69,0,0,1,1,1,45.8,45.8,0,0,0-6,7.2Zm6.6,59a.69.69,0,1,1-1,1A47.1,47.1,0,0,1,19.57,94.66a.7.7,0,0,1,.63-.75.69.69,0,0,1,.74.63,45.75,45.75,0,0,0,14.27,29.35ZM94.29,127a.68.68,0,0,1,.83,1.08,47.37,47.37,0,0,1-14,7.39.69.69,0,0,1-.82-.54.68.68,0,0,1,.39-.77A46.08,46.08,0,0,0,94.29,127Zm14.46-54.14a.68.68,0,0,1,1.26-.53,46.91,46.91,0,0,1,3.68,17.52.69.69,0,0,1-.77.61.7.7,0,0,1-.61-.61A45.74,45.74,0,0,0,108.75,72.86ZM80,46.84a.68.68,0,1,1,.4-1.31h0a47.26,47.26,0,0,1,25.44,19.09.69.69,0,0,1-1.15.76h0A45.79,45.79,0,0,0,80,46.79Zm20.47,69a.69.69,0,0,1,1-.14.7.7,0,0,1,.13,1A44.17,44.17,0,0,1,79.69,132.1a.69.69,0,0,1-.41-1.31,42.79,42.79,0,0,0,21.22-15Zm8-20a.69.69,0,0,1,.76-.61.69.69,0,0,1,.61.76h0a42,42,0,0,1-1.37,7,.68.68,0,0,1-1.31-.37A41.59,41.59,0,0,0,108.48,95.77ZM75,49.29a.7.7,0,0,1-.54-.81.68.68,0,0,1,.81-.54,42.68,42.68,0,0,1,25.52,15.75A45.12,45.12,0,0,1,110,92.82a.67.67,0,0,1-.68.68.68.68,0,0,1-.69-.68,43.79,43.79,0,0,0-9-28.26A41.4,41.4,0,0,0,75,49.29Zm-18.65.38a.7.7,0,0,1-.84-.5.69.69,0,0,1,.5-.83,43.39,43.39,0,0,1,7.67-1.19.69.69,0,0,1,.73.64.68.68,0,0,1-.64.73A41.35,41.35,0,0,0,56.37,49.67ZM37.13,120.8a.69.69,0,0,1-1,1,43.45,43.45,0,0,1-12.61-24.4.69.69,0,0,1,.57-.79.71.71,0,0,1,.79.58A42.12,42.12,0,0,0,37.13,120.8Zm67.35-23.22a.67.67,0,0,1,.79-.55.69.69,0,0,1,.56.8h0A40,40,0,0,1,79,128.51a.67.67,0,0,1-.86-.43.69.69,0,0,1,.43-.87h0A38.62,38.62,0,0,0,104.48,97.58ZM98.5,69a.7.7,0,0,1,.18-1,.69.69,0,0,1,.95.18A40,40,0,0,1,106.25,95a.69.69,0,1,1-1.37-.15A38.52,38.52,0,0,0,98.5,69Zm-33.37-17a.67.67,0,0,1-.68-.68.68.68,0,0,1,.68-.69h0a39.86,39.86,0,0,1,31.6,13.76.69.69,0,0,1-.27.93.69.69,0,0,1-.71,0A38.53,38.53,0,0,0,65.13,52.05Zm-27.8,63.67a.7.7,0,0,1-1,.9,40.2,40.2,0,0,1-6.76-11.1.69.69,0,0,1,.38-.89.68.68,0,0,1,.89.39h0A38.56,38.56,0,0,0,37.33,115.72Zm64-22.19a.69.69,0,1,1,1.37.11,36.3,36.3,0,0,1-25.26,31.59.69.69,0,0,1-.86-.45.67.67,0,0,1,.45-.86A35,35,0,0,0,101.37,93.53Zm-8-25.39a.69.69,0,0,1,.09-1,.68.68,0,0,1,1,.09,36.12,36.12,0,0,1,8.43,21.47.69.69,0,0,1-1.37.07A34.79,34.79,0,0,0,93.38,68.14ZM63.06,55.8a.69.69,0,0,1-.14-1.36A36.31,36.31,0,0,1,92.05,64.72a.69.69,0,1,1-1,1A35,35,0,0,0,63.06,55.8Zm-23.48,57a.69.69,0,1,1-1.06.88h0a36.77,36.77,0,0,1-3.78-5.64.68.68,0,0,1,1.19-.66A35.46,35.46,0,0,0,39.58,112.84ZM95,77.29a.68.68,0,0,1,1.24-.58,32.75,32.75,0,0,1-15.82,43.53,31.67,31.67,0,0,1-3,1.21.7.7,0,0,1-.88-.43.69.69,0,0,1,.43-.87h0a31.37,31.37,0,0,0,19.15-40C95.77,79.16,95.38,78.22,95,77.29ZM66.3,59.23a.68.68,0,0,1-.68-.68.69.69,0,0,1,.68-.69h0a32.7,32.7,0,0,1,27.08,14,.69.69,0,0,1-1.12.8A31.31,31.31,0,0,0,66.3,59.23ZM91,77.52a.68.68,0,0,1,.28-.93.69.69,0,0,1,.93.28,29.13,29.13,0,0,1-12,39.41c-.34.18-.68.36-1,.52a.68.68,0,0,1-.6-1.23,27.77,27.77,0,0,0,12.9-37.1C91.36,78.15,91.19,77.83,91,77.52ZM68.1,62.84a.69.69,0,0,1,.07-1.37h0A29.06,29.06,0,0,1,88,70.81a.69.69,0,0,1,0,1,.68.68,0,0,1-1,0A27.71,27.71,0,0,0,68.1,62.88Zm17.6,13A.69.69,0,0,1,86.79,75a25.5,25.5,0,0,1-4.7,35.76,25.16,25.16,0,0,1-4,2.52.68.68,0,0,1-.62-1.21A24.15,24.15,0,0,0,88.05,79.61a23,23,0,0,0-2.35-3.74Zm-6-5.51a.69.69,0,0,1,.74-1.15,24.23,24.23,0,0,1,2.19,1.57.68.68,0,1,1-.86,1.06h0c-.65-.52-1.34-1-2-1.48Zm-4-2.09A.68.68,0,0,1,76.2,67c.56.23,1.1.47,1.65.74A.7.7,0,1,1,77.22,69c-.51-.25-1-.48-1.55-.7ZM62.51,66.79a.69.69,0,0,1-.79-.57.68.68,0,0,1,.56-.79,25.66,25.66,0,0,1,10,.3.69.69,0,0,1-.3,1.34A24.51,24.51,0,0,0,62.51,66.79Zm11.12,4.52a.69.69,0,0,1-.41-.88A.69.69,0,0,1,74.1,70a21.91,21.91,0,0,1,2.26,40.11.69.69,0,0,1-.62-1.23,20.54,20.54,0,0,0-2.11-37.62ZM62,70.56a.68.68,0,0,1-.82-.52.69.69,0,0,1,.52-.82,22.33,22.33,0,0,1,7.9-.33.69.69,0,1,1-.18,1.36A20.8,20.8,0,0,0,62,70.56Zm-.47,3.87a.68.68,0,0,1-.85-.46.67.67,0,0,1,.45-.85A18.29,18.29,0,0,1,77,105.57a.69.69,0,1,1-.79-1.12A16.93,16.93,0,0,0,67,73.67,16.67,16.67,0,0,0,61.5,74.43ZM54,86.22a.68.68,0,0,1-.87.43.69.69,0,0,1-.43-.87,14.68,14.68,0,1,1,20.7,17.81.69.69,0,0,1-.64-1.22A13.31,13.31,0,1,0,54,86.22Zm5.39,10.87a.68.68,0,0,1-1,.92,11.09,11.09,0,1,1,7.92,3.65.68.68,0,0,1-.6-.77.7.7,0,0,1,.6-.61,9.71,9.71,0,1,0-6.93-3.19Zm7.37-12.61a6.11,6.11,0,1,0,5.92,6.28v0A6.1,6.1,0,0,0,66.73,84.48Zm0-1.38a7.48,7.48,0,1,1-7.68,7.27,7.49,7.49,0,0,1,7.68-7.27h0Zm-.14,5A2.5,2.5,0,1,0,69,90.65,2.49,2.49,0,0,0,66.59,88.08Zm0-1.37a3.92,3.92,0,1,1-3.91,3.92.86.86,0,0,1,0-.16,3.91,3.91,0,0,1,4-3.77Z" transform="translate(-9.22 -7.29)"/><path class="cls-10" d="M70.74,152.41C61.42,165.73,52.31,173,44.82,173a10.54,10.54,0,0,1-3.34-.51C33.89,170,29.68,159,29.62,141.62c-.06-17,3.81-38.32,10.87-60C42.75,74.7,45.2,68.1,47.81,61.9" transform="translate(-9.22 -7.29)"/><circle class="cls-11" cx="36.42" cy="60.09" r="10.85"/><path class="cls-12" d="M182.26,38.43h28.06v5.46H188v14.3h20.7v5.46H188V78.78h22.44v5.45H182.26Z" transform="translate(-9.22 -7.29)"/><path class="cls-12" d="M250.67,51.08V84.23h-5.33V79.46A14.79,14.79,0,0,1,233.51,85c-9.54,0-16.63-7.69-16.63-17.61S224,50.26,233.51,50.26A14.66,14.66,0,0,1,245.34,56V51.08Zm-4.89,16.54c0-6.62-4.58-12.27-11.74-12.27S222.51,61,222.51,67.69,227,80,234.1,80,245.78,74.38,245.78,67.62Z" transform="translate(-9.22 -7.29)"/><path class="cls-12" d="M259.29,51.08h5.21v5c1.95-4,5.14-5.87,9.6-5.87a14.73,14.73,0,0,1,3.85.49l-.5,5.39A11.27,11.27,0,0,0,274,55.5c-5,0-9.23,3.34-9.23,10.85V84.23h-5.52Z" transform="translate(-9.22 -7.29)"/><path class="cls-12" d="M306,82.25A14.17,14.17,0,0,1,297.35,85c-7.14,0-10.48-4.71-10.48-12.34V55.85H281V51.08h6V39.34h5.45V51.08h11.83v4.77H292.41V73.26c0,4.09,1.42,6.69,5.45,6.69a11.41,11.41,0,0,0,6-2Z" transform="translate(-9.22 -7.29)"/><path class="cls-12" d="M311.35,37.31h5.34V55.16a12.64,12.64,0,0,1,10.53-5c6.85,0,13.08,4.47,13.08,14V84.23h-5.52V65.7c0-6.85-3.65-10.35-8.61-10.35-5.52,0-9.3,4.28-9.3,10.35V84.23h-5.52Z" transform="translate(-9.22 -7.29)"/><path class="cls-12" d="M350.9,38.43h16.86c12.88,0,20.94,8.86,20.94,23s-8.12,22.8-21.57,22.8H350.9Zm16.39,40.35c10,0,15.44-7.56,15.44-17.54s-5.46-17.35-15.37-17.35H356.6V78.78Z" transform="translate(-9.22 -7.29)"/><path class="cls-12" d="M427.44,51.08V84.23h-5.37V79.46A14.79,14.79,0,0,1,410.24,85c-9.55,0-16.63-7.69-16.63-17.61s7.06-17.17,16.63-17.17A14.66,14.66,0,0,1,422.07,56V51.08Zm-4.89,16.54c0-6.62-4.58-12.27-11.74-12.27S399.22,61,399.22,67.69,403.68,80,410.81,80s11.73-5.57,11.73-12.33Z" transform="translate(-9.22 -7.29)"/><path class="cls-12" d="M436,42.15a4.1,4.1,0,1,1,4.16,4.09A4,4,0,0,1,436,42.38Zm1.3,42.07V51.08h5.52V84.23Z" transform="translate(-9.22 -7.29)"/><path class="cls-12" d="M451.42,84.23v-47h5.52v47Z" transform="translate(-9.22 -7.29)"/><path class="cls-12" d="M495.13,51.08l-14,37.17c-2.86,7.51-6.39,10-11.11,10a9.61,9.61,0,0,1-5.14-1.25l.62-4.89a11,11,0,0,0,4,1c2.6,0,4.77-1.56,6.56-5.87l1.3-3.23L463,51.08h6.38l10.54,25.43L489,51.08Z" transform="translate(-9.22 -7.29)"/></svg>