<svg xmlns="http://www.w3.org/2000/svg" xmlns:xlink="http://www.w3.org/1999/xlink" id="Layer_1" data-name="Layer 1" viewBox="0 0 512 512"><defs><style>.cls-1,.cls-2,.cls-5,.cls-7{fill:none;}.cls-2{stroke:#39cefb;}.cls-2,.cls-7{stroke-linecap:round;}.cls-2,.cls-5,.cls-7{stroke-miterlimit:10;stroke-width:5.72px;}.cls-3{clip-path:url(#clip-path);}.cls-4{fill:url(#linear-gradient);}.cls-5{stroke:url(#linear-gradient-2);}.cls-6{fill:url(#radial-gradient);}.cls-7{stroke:url(#linear-gradient-3);}.cls-8{fill:url(#linear-gradient-4);}.cls-9{fill:url(#linear-gradient-5);}</style><clipPath id="clip-path"><polygon class="cls-1" points="383.06 148.11 353.84 122.33 365.58 100.09 399.1 125.88 383.06 148.11"></polygon></clipPath><linearGradient id="linear-gradient" x1="303.79" y1="345.53" x2="373.91" y2="114.41" gradientUnits="userSpaceOnUse"><stop offset="0" stop-color="#1784eb"></stop><stop offset="1" stop-color="#2dd3fc"></stop></linearGradient><linearGradient id="linear-gradient-2" x1="226.74" y1="421.94" x2="285.26" y2="90.06" xlink:href="#linear-gradient"></linearGradient><radialGradient id="radial-gradient" cx="278.5" cy="311.1" r="143.51" gradientTransform="translate(-15.34 -71.86) rotate(1.57)" gradientUnits="userSpaceOnUse"><stop offset="0.2" stop-color="#29f2a1"></stop><stop offset="1" stop-color="#00b2f4" stop-opacity="0.5"></stop></radialGradient><linearGradient id="linear-gradient-3" x1="173.67" y1="495.73" x2="266.68" y2="189.13" gradientUnits="userSpaceOnUse"><stop offset="0.28" stop-color="#1784eb"></stop><stop offset="1" stop-color="#2dd3fc"></stop></linearGradient><linearGradient id="linear-gradient-4" x1="173.32" y1="398.99" x2="241.81" y2="173.22" xlink:href="#linear-gradient"></linearGradient><linearGradient id="linear-gradient-5" x1="108.03" y1="471.14" x2="231.88" y2="62.9" xlink:href="#linear-gradient"></linearGradient></defs><path class="cls-2" d="M254.29,72c29.68-41.3,59.84-62.86,83.4-55.19,26.54,8.65,38.7,52.11,33.56,119.49"></path><g class="cls-3"><circle class="cls-4" cx="367.78" cy="134.6" r="14.73"></circle></g><path class="cls-5" d="M256,421.62c-91.33,0-165.62-74.29-165.62-165.62S164.67,90.38,256,90.38,421.62,164.68,421.62,256,347.32,421.62,256,421.62Z"></path><path class="cls-6" d="M180.27,132.43a2,2,0,0,1-2.08-3.44,147.79,147.79,0,0,1,80.92-21.39,2,2,0,0,1-.11,4,143.65,143.65,0,0,0-78.73,20.81Zm-54.55,59.31a2,2,0,0,1-3.6-1.78,148.5,148.5,0,0,1,31.59-42.4,2,2,0,0,1,2.73,2.94,145.09,145.09,0,0,0-30.72,41.24Zm-14.9,57.36a2,2,0,0,1-4,0c0-1.63,0-3.27.07-4.9a2,2,0,0,1,4,.11c0,1.62-.07,3.22-.08,4.84Zm45.83,112.4a2,2,0,0,1-2.74,2.93,148.13,148.13,0,0,1-47-100.85,2,2,0,0,1,4-.18,143.94,143.94,0,0,0,45.75,98.1ZM318.44,126.17a2,2,0,0,1,1.77-3.6,148.47,148.47,0,0,1,82.27,116.56,2,2,0,0,1-4,.44,144.51,144.51,0,0,0-80.05-113.4ZM181.65,144a2,2,0,0,1-2.21-3.35,137.27,137.27,0,0,1,55.79-21.17,2,2,0,0,1,.56,4A133.07,133.07,0,0,0,181.65,144ZM144.19,181a2,2,0,0,1-3.32-2.24A137.7,137.7,0,0,1,159.06,157a2,2,0,0,1,2.8,2.88,133.76,133.76,0,0,0-17.67,21Zm19.28,172.49a2,2,0,0,1-2.75,2.92,137.53,137.53,0,0,1-43-88.48,2,2,0,0,1,4-.33,133.59,133.59,0,0,0,41.71,85.89Zm172.68,8.9a2,2,0,0,1,2.43,3.19,138,138,0,0,1-41,21.49,2,2,0,0,1-1.23-3.82,133.73,133.73,0,0,0,39.77-20.86ZM378.42,204a2,2,0,0,1,3.71-1.55,137.44,137.44,0,0,1,10.74,51.21,2,2,0,0,1-4,0A133.74,133.74,0,0,0,378.42,204Zm-84-76a2,2,0,0,1,1.18-3.84A138.11,138.11,0,0,1,370.1,180a2,2,0,0,1-3.35,2.21A134,134,0,0,0,294.45,128Zm59.89,201.62a2,2,0,0,1,3.2,2.42,129.11,129.11,0,0,1-64.08,45.25,2,2,0,0,1-1.2-3.83,125.36,125.36,0,0,0,62.08-43.83Zm23.3-58.56a2,2,0,0,1,4,.43,120.67,120.67,0,0,1-4,20.37,2,2,0,0,1-3.85-1.09,118,118,0,0,0,3.84-19.71ZM279.8,135.12a2,2,0,0,1,.8-3.94,124.88,124.88,0,0,1,74.61,46.07c18.1,23.39,28,53.25,27,85.18a2,2,0,0,1-4-.11c.95-31-8.65-59.93-26.2-82.61a121.12,121.12,0,0,0-72.23-44.59Zm-54.53,1.14a2,2,0,0,1-1-3.9,126.89,126.89,0,0,1,22.42-3.47,2,2,0,0,1,.25,4,122.43,122.43,0,0,0-21.71,3.37ZM169,344.16a2,2,0,0,1-2.8,2.88,127.18,127.18,0,0,1-36.9-71.31,2,2,0,0,1,4-.62A123.07,123.07,0,0,0,169,344.16Zm196.91-67.82a2,2,0,0,1,3.94.73,116.87,116.87,0,0,1-78.34,89.73,2,2,0,0,1-1.25-3.81,112.9,112.9,0,0,0,75.64-86.65Zm-17.47-83.59a2,2,0,0,1,3.32-2.25,116.66,116.66,0,0,1,19.32,78.25,2,2,0,0,1-4-.42,112.44,112.44,0,0,0-18.64-75.57ZM250.9,143.23a2,2,0,0,1-.14-4,116.57,116.57,0,0,1,92.53,40.21,2,2,0,0,1-3,2.63,112.62,112.62,0,0,0-89.37-38.83ZM169.6,329.38a2,2,0,0,1-3,2.62,117.11,117.11,0,0,1-19.77-32.43,2,2,0,0,1,3.72-1.5,112.91,112.91,0,0,0,19.1,31.31Zm187.28-64.89a2,2,0,0,1,4,.33A106.26,106.26,0,0,1,287,357.18a2,2,0,0,1-1.2-3.83,102.28,102.28,0,0,0,71.08-88.86Zm-23.49-74.24a2,2,0,0,1,3.07-2.57,105.78,105.78,0,0,1,24.67,62.78,2,2,0,0,1-4,.19,101.72,101.72,0,0,0-23.73-60.4Zm-88.66-36.06a2,2,0,0,1-.39-4,106.15,106.15,0,0,1,85.28,30.06,2,2,0,0,1-2.81,2.86,102.23,102.23,0,0,0-82.08-28.93ZM176.3,321a2,2,0,0,1-3.08,2.56A106.78,106.78,0,0,1,162,307.08a2,2,0,0,1,3.52-1.94A101.49,101.49,0,0,0,176.3,321ZM338.06,217a2,2,0,0,1,3.63-1.71A95.72,95.72,0,0,1,286.8,346.13a2,2,0,0,1-1.33-3.79A91.72,91.72,0,0,0,338.06,217Zm-83.75-52.78a2,2,0,0,1,0-4,95.56,95.56,0,0,1,79.26,41,2,2,0,0,1-3.29,2.3,91.56,91.56,0,0,0-76-39.28Zm72.29,53.44a2,2,0,0,1,3.54-1.88A85.15,85.15,0,0,1,292,332.55a2,2,0,0,1-1.74-3.62,81.17,81.17,0,0,0,36.3-111.26Zm-67-42.78a2,2,0,0,1,.22-4,84.86,84.86,0,0,1,57.83,27.29,2,2,0,0,1-2.95,2.72,80.82,80.82,0,0,0-55.09-26Zm51.43,38a2,2,0,0,1,3.18-2.45,74.57,74.57,0,0,1-25.41,111.94,2,2,0,0,1-1.82-3.57A70.6,70.6,0,0,0,311,212.89Zm-17.6-16.25a2,2,0,0,1,2.18-3.37,74.21,74.21,0,0,1,6.32,4.59,2,2,0,0,1-2.52,3.12,71.18,71.18,0,0,0-6-4.34Zm-11.69-6.11a2,2,0,0,1,1.52-3.72q2.41,1,4.78,2.16a2,2,0,0,1-1.77,3.6c-1.47-.73-3-1.42-4.53-2Zm-38.49-4.23a2,2,0,0,1-.66-4,75.23,75.23,0,0,1,29.33.88,2,2,0,0,1-.89,3.9,71.57,71.57,0,0,0-27.78-.82Zm32.52,13.22a2,2,0,0,1,1.38-3.77,64.06,64.06,0,0,1,6.62,117.37,2,2,0,0,1-1.81-3.59,60,60,0,0,0-6.19-110Zm-34.08-2.18a2,2,0,0,1-.88-3.9,64.4,64.4,0,0,1,23.11-1,2,2,0,0,1-.55,4,60.35,60.35,0,0,0-21.68.92Zm-1.37,11.3a2,2,0,0,1-1.19-3.83,53.49,53.49,0,0,1,46.61,94.89,2,2,0,0,1-2.3-3.29,49.48,49.48,0,0,0-43.12-87.76Zm-22,34.5a2,2,0,0,1-3.8-1.3A42.95,42.95,0,1,1,275,293.9a2,2,0,0,1-1.87-3.55,38.93,38.93,0,1,0-54.86-47.21ZM234,274.92a2,2,0,0,1-3,2.69,32.41,32.41,0,1,1,23.15,10.66,2,2,0,0,1,.11-4A28.37,28.37,0,1,0,234,274.92ZM255.55,238a17.84,17.84,0,1,0,17.35,18.32A17.83,17.83,0,0,0,255.55,238Zm.11-4a21.86,21.86,0,1,1-22.45,21.26A21.86,21.86,0,0,1,255.66,234Zm-.4,14.56a7.3,7.3,0,1,0,7.09,7.49,7.29,7.29,0,0,0-7.09-7.49Zm.11-4a11.32,11.32,0,1,1-11.62,11,11.32,11.32,0,0,1,11.62-11Z"></path><path class="cls-7" d="M267.29,436.67c-27.23,38.93-53.91,60-75.77,60a31.46,31.46,0,0,1-9.78-1.53C159.55,488,147.23,456,147.06,405.07c-.16-49.73,11.13-112,31.8-175.43,6.59-20.23,13.78-39.53,21.38-57.67"></path><circle class="cls-8" cx="155.74" cy="456.94" r="21.38"></circle><circle class="cls-9" cx="193.92" cy="188.03" r="31.73"></circle></svg>