<svg id="Layer_1" data-name="Layer 1" xmlns="http://www.w3.org/2000/svg" xmlns:xlink="http://www.w3.org/1999/xlink" viewBox="0 0 693.42 180.25"><defs><style>.cls-1,.cls-11,.cls-6,.cls-9{fill:none;}.cls-2{fill:#44c68b;}.cls-3,.cls-4{fill:#30aee4;}.cls-4{stroke:#30aee4;}.cls-11,.cls-4,.cls-6,.cls-9{stroke-miterlimit:10;}.cls-11,.cls-4,.cls-6{stroke-width:2px;}.cls-5{fill:url(#linear-gradient);}.cls-6{stroke:#39cefb;}.cls-11,.cls-6{stroke-linecap:round;}.cls-7{clip-path:url(#clip-path);}.cls-8{fill:url(#linear-gradient-2);}.cls-9{stroke-width:4px;stroke:url(#linear-gradient-3);}.cls-10{fill:url(#radial-gradient);}.cls-11{stroke:url(#linear-gradient-4);}.cls-12{fill:url(#linear-gradient-5);}</style><linearGradient id="linear-gradient" x1="346.39" y1="461.62" x2="366.59" y2="528.2" gradientTransform="matrix(1, 0, 0, -1, -49.99, 596.11)" gradientUnits="userSpaceOnUse"><stop offset="0" stop-color="#1784eb"/><stop offset="1" stop-color="#2dd3fc"/></linearGradient><clipPath id="clip-path" transform="translate(-49.99 -17.89)"><polygon class="cls-1" points="408.25 78.39 399.63 70.78 403.1 64.23 412.98 71.83 408.25 78.39"/></clipPath><linearGradient id="linear-gradient-2" x1="384.88" y1="477.39" x2="405.55" y2="545.55" xlink:href="#linear-gradient"/><linearGradient id="linear-gradient-3" x1="361.94" y1="453.71" x2="379.59" y2="553.89" gradientTransform="matrix(1, 0, 0, -1, 0, 614)" xlink:href="#linear-gradient"/><radialGradient id="radial-gradient" cx="383.3" cy="414.08" r="42.33" gradientTransform="matrix(1, 0.03, 0.03, -1, -24.16, 510.89)" gradientUnits="userSpaceOnUse"><stop offset="0.2" stop-color="#29f2a1"/><stop offset="1" stop-color="#00b2f4" stop-opacity="0.5"/></radialGradient><linearGradient id="linear-gradient-4" x1="346.45" y1="432.94" x2="373.97" y2="523.65" gradientTransform="matrix(1, 0, 0, -1, 0, 614)" gradientUnits="userSpaceOnUse"><stop offset="0.28" stop-color="#1784eb"/><stop offset="1" stop-color="#2dd3fc"/></linearGradient><linearGradient id="linear-gradient-5" x1="327.14" y1="440.35" x2="363.66" y2="560.75" xlink:href="#linear-gradient"/></defs><path class="cls-2" d="M212.94,74.17v65.39c0,23.71-15.27,38.43-38.83,38.43a54.63,54.63,0,0,1-31.89-10.22l5.86-9.68c6.41,4.77,16.22,8.86,26,8.86,16.48,0,26.7-10.63,26.7-25.2v-6c-6.4,7.49-15.53,11.45-25.89,11.45-20.84,0-36.65-16.22-36.65-37.47s16.49-37.33,37.2-37.33c10.22,0,19.07,3.95,25.34,11.31V74.17Zm-11.18,35.56c0-15.13-10.9-26.3-25.61-26.3s-25.62,11.17-25.62,26.3,10.77,26.43,25.62,26.43S201.76,124.85,201.76,109.73Z" transform="translate(-49.99 -17.89)"/><path class="cls-2" d="M300.39,115.72H241.94c1.77,11.58,9.4,21.67,26.16,21.67a47.47,47.47,0,0,0,25.75-8.31l5.18,9.4c-6.4,5.17-18.26,10.21-31.2,10.21-27.52,0-38.69-19.34-38.69-38.28,0-21.66,14.71-38,36.65-38,20.16,0,35,13.76,35,36.92A58.84,58.84,0,0,1,300.39,115.72Zm-58.45-10.9H288c-.68-13.35-10.35-21.39-22.2-21.39C253.11,83.43,244,92.43,241.94,104.82Z" transform="translate(-49.99 -17.89)"/><path class="cls-3" d="M431.38,132.75l6.54-4.08c4.22,8.44,11.44,12.67,19.21,12.67,10.22,0,16.62-6.54,16.62-13.76,0-6-4.09-9.27-9.27-11.86s-12.53-5-17.43-7.63c-7.63-4-11.59-9.94-11.59-17,0-10.62,8.31-19.34,22.35-19.34,9,0,17.3,3.81,21.93,11.44L474,87.79c-3.54-6-9.4-8.85-16.35-8.85-9.4,0-14.3,5.31-14.3,11.85,0,5,3,8.58,7.9,11s12,4.76,17.85,7.76c7.49,3.68,12.8,8.45,12.8,17.44,0,11.85-10.08,21.66-24.79,21.66C447.05,148.69,436.83,143.93,431.38,132.75Z" transform="translate(-49.99 -17.89)"/><path class="cls-3" d="M554.94,74.17l-30.79,78.34C517.07,170.77,510.53,178,499.22,178a22,22,0,0,1-10.49-2.59l1.22-7.22a21,21,0,0,0,9,2.18c7.9,0,12.94-7,17.44-18.67l1.77-4.63L487.09,74.17h9l26,62.26L546,74.17Z" transform="translate(-49.99 -17.89)"/><path class="cls-3" d="M559.16,132.75l6.54-4.08c4.22,8.44,11.44,12.67,19.21,12.67,10.22,0,16.62-6.54,16.62-13.76,0-6-4.09-9.27-9.26-11.86s-12.54-5-17.44-7.63c-7.63-4-11.58-9.94-11.58-17,0-10.62,8.31-19.34,22.34-19.34,9,0,17.3,3.81,21.94,11.44l-5.73,4.63c-3.54-6-9.4-8.85-16.35-8.85-9.4,0-14.3,5.31-14.3,11.85,0,5,3,8.58,7.9,11s12,4.76,17.85,7.76c7.49,3.68,12.81,8.45,12.81,17.44,0,11.85-10.09,21.66-24.8,21.66C574.83,148.69,564.61,143.93,559.16,132.75Z" transform="translate(-49.99 -17.89)"/><path class="cls-4" d="M51.82,110.8a2.82,2.82,0,0,1,0-4L109.1,49.53l4,4L57.8,108.81l55.28,55.28-4,4Z" transform="translate(-49.99 -17.89)"/><path class="cls-4" d="M680.32,164.09l55.29-55.29L680.33,53.52l4-4,57.28,57.28a2.82,2.82,0,0,1,0,4L684.3,168.08Z" transform="translate(-49.99 -17.89)"/><rect class="cls-4" x="551.23" y="105.2" width="181.65" height="5.64" transform="translate(335.36 688.47) rotate(-76.33)"/><circle class="cls-5" cx="291.21" cy="151.58" r="6.31"/><path class="cls-6" d="M370.28,55.94c8.74-12.18,17.64-18.55,24.59-16.28,7.83,2.54,11.42,15.37,9.9,35.25" transform="translate(-49.99 -17.89)"/><g class="cls-7"><circle class="cls-8" cx="353.75" cy="56.51" r="4.34"/></g><path class="cls-9" d="M370.77,159.05a48.85,48.85,0,1,1,48.85-48.85h0A48.92,48.92,0,0,1,370.77,159.05Z" transform="translate(-49.99 -17.89)"/><path class="cls-10" d="M348.45,73.8a.6.6,0,0,1-.82-.2.59.59,0,0,1,.2-.81,43.63,43.63,0,0,1,23.87-6.35.6.6,0,0,1,0,1.19A42.31,42.31,0,0,0,348.45,73.8ZM332.36,91.26a.6.6,0,0,1-.79.27.59.59,0,0,1-.27-.8h0a43.94,43.94,0,0,1,9.27-12.5.61.61,0,0,1,.85,0,.6.6,0,0,1,0,.84A42.87,42.87,0,0,0,332.36,91.26ZM328,108.18a.59.59,0,0,1-.59.59.6.6,0,0,1-.59-.59v-1.45a.61.61,0,0,1,.67-.53.6.6,0,0,1,.52.53v1.45Zm13.5,33.14a.6.6,0,0,1,0,.84.58.58,0,0,1-.84,0,43.64,43.64,0,0,1-13.82-29.72.59.59,0,0,1,.63-.56.61.61,0,0,1,.56.51,42.41,42.41,0,0,0,13.5,28.93Zm47.74-69.4a.59.59,0,0,1,.51-1.06A43.75,43.75,0,0,1,414,105.23a.6.6,0,0,1-.53.66.59.59,0,0,1-.65-.53h0a42.61,42.61,0,0,0-23.62-33.44Zm-40.35,5.26a.59.59,0,0,1-.65-1A40.54,40.54,0,0,1,364.65,70a.59.59,0,1,1,.17,1.17h0A39.37,39.37,0,0,0,348.85,77.18ZM337.8,88.08a.59.59,0,0,1-1-.66A40.59,40.59,0,0,1,342.18,81a.6.6,0,0,1,.84,0,.61.61,0,0,1,0,.85,39.25,39.25,0,0,0-5.21,6.21Zm5.69,50.86a.6.6,0,1,1-.85.84A40.6,40.6,0,0,1,330,113.68a.59.59,0,0,1,.54-.64.61.61,0,0,1,.64.54,39.47,39.47,0,0,0,12.3,25.31Zm50.93,2.63a.59.59,0,0,1,.71.94,41,41,0,0,1-12.07,6.37.61.61,0,0,1-.71-.47.59.59,0,0,1,.33-.66,39.82,39.82,0,0,0,11.74-6.15Zm12.47-46.68a.59.59,0,0,1,1.08-.45,40.4,40.4,0,0,1,3.18,15.1.61.61,0,0,1-.67.53.6.6,0,0,1-.52-.53A39.45,39.45,0,0,0,406.89,94.89ZM382.12,72.45a.59.59,0,0,1,.34-1.13h0A40.75,40.75,0,0,1,404.4,87.79a.59.59,0,0,1-1,.65h0a39.55,39.55,0,0,0-21.32-16Zm17.65,59.46a.6.6,0,0,1,.84-.11.59.59,0,0,1,.11.83A38.15,38.15,0,0,1,381.82,146a.6.6,0,0,1-.74-.39.59.59,0,0,1,.39-.74,36.92,36.92,0,0,0,18.3-12.93Zm6.88-17.26a.59.59,0,0,1,.65-.53.59.59,0,0,1,.53.65h0a36.09,36.09,0,0,1-1.18,6,.59.59,0,0,1-.77.33.59.59,0,0,1-.36-.65A34.88,34.88,0,0,0,406.65,114.65ZM377.8,74.56A.59.59,0,1,1,378,73.4,36.87,36.87,0,0,1,400,87,38.92,38.92,0,0,1,408,112.1a.58.58,0,0,1-.59.59.59.59,0,0,1-.59-.59,37.79,37.79,0,0,0-7.72-24.37A35.73,35.73,0,0,0,377.8,74.56Zm-16.09.33a.59.59,0,0,1-.28-1.15,37.86,37.86,0,0,1,6.61-1,.59.59,0,0,1,.08,1.18A36.52,36.52,0,0,0,361.71,74.89Zm-16.58,61.33a.61.61,0,0,1,0,.85.6.6,0,0,1-.84,0,37.51,37.51,0,0,1-10.88-21,.6.6,0,0,1,1.18-.18A36.18,36.18,0,0,0,345.13,136.22Zm58.07-20a.59.59,0,1,1,1.16.21h0a34.45,34.45,0,0,1-23.1,26.46.6.6,0,0,1-.75-.38.59.59,0,0,1,.38-.74h0A33.31,33.31,0,0,0,403.2,116.21ZM398,91.56a.59.59,0,0,1,.16-.82.58.58,0,0,1,.82.15A34.51,34.51,0,0,1,404.73,114a.6.6,0,0,1-1.19-.12A33.15,33.15,0,0,0,398,91.56ZM369.27,77a.6.6,0,0,1-.59-.59.59.59,0,0,1,.59-.59h0a34.38,34.38,0,0,1,27.25,11.86.6.6,0,0,1-.24.8.61.61,0,0,1-.61,0A33.2,33.2,0,0,0,369.27,77Zm-24,54.9a.6.6,0,0,1-.16.83.59.59,0,0,1-.74-.06,34.6,34.6,0,0,1-5.83-9.56.59.59,0,1,1,1.09-.44h0A33.51,33.51,0,0,0,345.3,131.85Zm55.22-19.14a.6.6,0,0,1,1.19.1,31.34,31.34,0,0,1-21.79,27.24.6.6,0,0,1-.36-1.14A30.11,30.11,0,0,0,400.52,112.71Zm-6.89-21.89a.6.6,0,0,1,.08-.84.59.59,0,0,1,.83.08,31.19,31.19,0,0,1,7.28,18.51.6.6,0,0,1-1.19.06A29.92,29.92,0,0,0,393.63,90.82ZM367.48,80.18a.59.59,0,0,1-.61-.57.59.59,0,0,1,.5-.6,31.28,31.28,0,0,1,25.12,8.86.6.6,0,0,1-.85.85A30.12,30.12,0,0,0,367.48,80.18Zm-20.24,49.19a.59.59,0,0,1-.91.76h0a31.88,31.88,0,0,1-3.27-4.87.59.59,0,0,1,1-.57A30.67,30.67,0,0,0,347.24,129.37ZM395,98.71a.6.6,0,0,1,.29-.79.58.58,0,0,1,.78.29,28.23,28.23,0,0,1-13.64,37.53q-1.25.58-2.55,1a.6.6,0,0,1-.76-.37.59.59,0,0,1,.37-.75h0A27,27,0,0,0,396,101.16,24.68,24.68,0,0,0,395,98.71Zm-24.7-15.57a.59.59,0,0,1,0-1.18h0a28.16,28.16,0,0,1,23.35,12.09.58.58,0,0,1-.14.82.59.59,0,0,1-.83-.14A27,27,0,0,0,370.28,83.14ZM391.6,98.91a.6.6,0,1,1,1-.56,25.12,25.12,0,0,1-10.36,34c-.29.16-.58.31-.88.45a.59.59,0,0,1-.51-1.06,24,24,0,0,0,11.12-32C391.89,99.45,391.75,99.18,391.6,98.91ZM371.83,86.25a.59.59,0,0,1-.56-.62.59.59,0,0,1,.63-.56h0A25.07,25.07,0,0,1,389,93.12a.6.6,0,0,1,0,.84.58.58,0,0,1-.84,0,23.9,23.9,0,0,0-16.27-7.67ZM387,97.46a.61.61,0,0,1,.15-.83.6.6,0,0,1,.79.11,22,22,0,0,1-4.05,30.83,22.53,22.53,0,0,1-3.45,2.18.59.59,0,0,1-.77-.32.57.57,0,0,1,.23-.73,20.82,20.82,0,0,0,9.13-28,21.53,21.53,0,0,0-2-3.22Zm-5.19-4.76a.6.6,0,0,1-.1-.83.58.58,0,0,1,.74-.16,21.5,21.5,0,0,1,1.89,1.35.58.58,0,0,1,.09.83.59.59,0,0,1-.83.09h0c-.56-.46-1.15-.84-1.76-1.28Zm-3.45-1.8a.59.59,0,0,1,.45-1.1c.48.2.95.41,1.42.64a.6.6,0,0,1,.27.81.61.61,0,0,1-.81.27c-.44-.21-.85-.42-1.34-.6ZM367,89.65a.59.59,0,1,1-.19-1.17,22.24,22.24,0,0,1,8.64.26.59.59,0,0,1-.26,1.16A21.11,21.11,0,0,0,367,89.65Zm9.59,3.9a.59.59,0,0,1-.35-.76.58.58,0,0,1,.76-.35A18.89,18.89,0,0,1,379,127a.59.59,0,1,1-.54-1.06,17.71,17.71,0,0,0-1.82-32.44Zm-10.05-.64a.59.59,0,1,1-.26-1.16,19,19,0,0,1,6.81-.28.59.59,0,0,1,.51.66.6.6,0,0,1-.67.51A17.84,17.84,0,0,0,366.55,92.91Zm-.41,3.33a.59.59,0,1,1-.34-1.13,15.78,15.78,0,0,1,13.74,28,.58.58,0,0,1-.82-.15.59.59,0,0,1,.14-.82,14.6,14.6,0,0,0-12.72-25.89Zm-6.49,10.17a.59.59,0,0,1-1.12-.38,12.65,12.65,0,1,1,17.84,15.36.58.58,0,0,1-.79-.25.59.59,0,0,1,.25-.8,11.48,11.48,0,1,0-16.18-13.93Zm4.65,9.38a.6.6,0,0,1-.19.81.61.61,0,0,1-.66,0,9.58,9.58,0,1,1,6.83,3.14.59.59,0,0,1,0-1.18,8.37,8.37,0,1,0-6-2.75Zm6.35-10.88a5.27,5.27,0,1,0,5.11,5.41h0A5.27,5.27,0,0,0,370.65,104.91Zm0-1.19A6.45,6.45,0,1,1,364,110a6.45,6.45,0,0,1,6.62-6.27h0Zm-.12,4.3a2.15,2.15,0,1,0,2.09,2.21A2.14,2.14,0,0,0,370.53,108Zm0-1.18a3.37,3.37,0,1,1-3.37,3.38v-.15a3.37,3.37,0,0,1,3.44-3.24Z" transform="translate(-49.99 -17.89)"/><path class="cls-11" d="M374.11,163.49c-8,11.48-15.9,17.71-22.35,17.71a8.81,8.81,0,0,1-2.88-.45c-6.55-2.13-10.18-11.57-10.23-26.57,0-14.67,3.28-33,9.37-51.74,2-6,4.07-11.66,6.31-17" transform="translate(-49.99 -17.89)"/><circle class="cls-12" cx="302.48" cy="72.27" r="9.35"/></svg>